<!DOCTYPE svg PUBLIC "-//W3C//DTD SVG 1.1//EN" "http://www.w3.org/Graphics/SVG/1.1/DTD/svg11.dtd">
<svg xmlns="http://www.w3.org/2000/svg" xmlns:xlink="http://www.w3.org/1999/xlink" width="1041px" height="312px" version="1.1"><defs/><g transform="translate(0.5,0.5)"><rect x="250.6" y="1" width="551.33" height="310" fill="#ffffff" stroke="#000000" stroke-width="2" pointer-events="none"/><rect x="0" y="97.88" width="250.6" height="116.25" fill="#ffffff" stroke="#000000" stroke-width="2" transform="rotate(-90,125.3,156)" pointer-events="none"/><g fill="#000000" font-family="Helvetica" text-anchor="middle" font-size="20px" transform="rotate(-90,125.3,156)"><text x="124.8" y="163.5">WISHBONE BUS</text></g><rect x="263.13" y="128.88" width="250.6" height="170.5" fill="#ffffff" stroke="#000000" pointer-events="none"/><g fill="#000000" font-family="Helvetica" text-anchor="middle" font-size="20px"><text x="387.22" y="220.91">DEM_UART_16550</text></g><rect x="613.98" y="128.88" width="175.42" height="172.05" fill="#ffffff" stroke="#000000" pointer-events="none"/><g fill="#000000" font-family="Helvetica" text-anchor="middle" font-size="20px"><text x="700.47" y="221.69">DEM_UART</text></g><rect x="789.4" y="97.88" width="250.6" height="116.25" fill="#ffffff" stroke="#000000" stroke-width="2" transform="rotate(-90,914.7,156)" pointer-events="none"/><g fill="#000000" font-family="Helvetica" text-anchor="middle" font-size="20px" transform="rotate(-90,914.7,156)"><text x="914.2" y="163.5">DEBUG INTERCONNECT</text></g><path d="M 189.37 155.71 L 243.77 155.71" fill="none" stroke="#000000" stroke-miterlimit="10" pointer-events="none"/><path d="M 184.12 155.71 L 191.12 152.21 L 189.37 155.71 L 191.12 159.21 Z" fill="#000000" stroke="#000000" stroke-miterlimit="10" pointer-events="none"/><path d="M 249.02 155.71 L 242.02 159.21 L 243.77 155.71 L 242.02 152.21 Z" fill="#000000" stroke="#000000" stroke-miterlimit="10" pointer-events="none"/><path d="M 807.94 155.71 L 850.92 155.71" fill="none" stroke="#000000" stroke-miterlimit="10" pointer-events="none"/><path d="M 802.69 155.71 L 809.69 152.21 L 807.94 155.71 L 809.69 159.21 Z" fill="#000000" stroke="#000000" stroke-miterlimit="10" pointer-events="none"/><path d="M 856.17 155.71 L 849.17 159.21 L 850.92 155.71 L 849.17 152.21 Z" fill="#000000" stroke="#000000" stroke-miterlimit="10" pointer-events="none"/><path d="M 520.8 214.29 L 608.06 214.29" fill="none" stroke="#000000" stroke-miterlimit="10" pointer-events="none"/><path d="M 515.55 214.29 L 522.55 210.79 L 520.8 214.29 L 522.55 217.79 Z" fill="#000000" stroke="#000000" stroke-miterlimit="10" pointer-events="none"/><path d="M 613.31 214.29 L 606.31 217.79 L 608.06 214.29 L 606.31 210.79 Z" fill="#000000" stroke="#000000" stroke-miterlimit="10" pointer-events="none"/><g fill="#000000" font-family="Helvetica" text-anchor="middle" font-size="20px"><text x="525.77" y="66.63">DEM_UART Wrapper</text></g></g></svg>